<?xml version="1.0" standalone="no"?><!DOCTYPE svg PUBLIC "-//W3C//DTD SVG 1.1//EN" "http://www.w3.org/Graphics/SVG/1.1/DTD/svg11.dtd"><svg t="1604999525826" class="icon" viewBox="0 0 1024 1024" version="1.1" xmlns="http://www.w3.org/2000/svg" p-id="3269" xmlns:xlink="http://www.w3.org/1999/xlink" width="200" height="200"><defs><style type="text/css"></style></defs><path d="M766.7 943.9H174.3C114 943.9 65 894.8 65 834.6V189.4c0-60.3 49-109.3 109.3-109.3h592.4c60.3 0 109.3 49 109.3 109.3v28.1c0 20.1-16.3 36.5-36.5 36.5-20.1 0-36.5-16.3-36.5-36.5v-28.1c0-20-16.3-36.3-36.3-36.3H174.3c-20 0-36.3 16.3-36.3 36.3v645.1c0 20 16.3 36.3 36.3 36.3h592.4c20 0 36.3-16.3 36.3-36.3V627.9c0-20.1 16.3-36.5 36.5-36.5 20.1 0 36.5 16.3 36.5 36.5v206.7c0 60.2-49 109.3-109.3 109.3z" fill="#232426" p-id="3270"></path><path d="M865.6 548.9H505.4c-16.7 0-32.9-3.4-48.2-10.1l-162.1-71.1c-18.8-8.2-30.9-26.8-30.9-47.3 0-20.5 12.1-39 30.9-47.3l159.5-69.8c15.3-6.7 31.5-10.1 48.1-10.1h362.8c51.5 0 93.4 41.9 93.4 93.4v68.7c0.1 51.7-41.8 93.6-93.3 93.6zM369 420.5L486.5 472c6 2.6 12.3 4 18.9 4h360.2c11.3 0 20.5-9.2 20.5-20.5v-68.7c0-11.3-9.2-20.5-20.5-20.5H502.7c-6.5 0-12.9 1.3-18.9 3.9L369 420.5z" fill="#FFCF41" p-id="3271"></path><path d="M689.4 761.7H251.6c-20.1 0-36.5-16.3-36.5-36.5 0-20.1 16.3-36.5 36.5-36.5h437.7c20.1 0 36.5 16.3 36.5 36.5 0.1 20.1-16.3 36.5-36.4 36.5z" fill="#232426" p-id="3272"></path></svg>