<?xml version="1.0" standalone="no"?><!DOCTYPE svg PUBLIC "-//W3C//DTD SVG 1.1//EN" "http://www.w3.org/Graphics/SVG/1.1/DTD/svg11.dtd"><svg t="1604999544717" class="icon" viewBox="0 0 1024 1024" version="1.1" xmlns="http://www.w3.org/2000/svg" p-id="3862" xmlns:xlink="http://www.w3.org/1999/xlink" width="200" height="200"><defs><style type="text/css"></style></defs><path d="M512 962.9C263.4 962.9 61.1 760.6 61.1 512S263.4 61.1 512 61.1 962.9 263.4 962.9 512 760.6 962.9 512 962.9z m0-827c-207.4 0-376.1 168.7-376.1 376.1S304.6 888.1 512 888.1 888.1 719.4 888.1 512 719.4 135.9 512 135.9z" fill="#232426" p-id="3863"></path><path d="M484 778.1c-17.7 0-32-14.4-32-32V720h-0.2c-8.4-1.6-17-3.2-25.5-5.5-5.2-1.4-12.8-4.7-23.3-9.9-12.6-6.3-20.5-18.9-20.5-33.1 0-9.9 3.8-19.3 10.8-26.3 6.9-7 16.5-11 26.3-11 5.1 0 10.1 1 14.8 3.1 20.5 8.9 36.8 14.3 47.2 15.7 5.9 0.8 11.9 1.2 17.8 1.2 11.8 0 23.7-1.6 35.3-4.8 19.9-5.4 26.2-19.4 28.1-27.3 3.5-14-0.6-29.5-10.2-38.5-7.6-7.2-16.5-13.8-25.8-19.1-8.8-5-18.1-9.8-27.1-14.3-9.1-4.6-18.5-9.3-27.6-14.6-14-8-32.2-18.8-49.1-31.2-26.5-19.6-42-53.4-40.4-88.3 1.6-35.5 19.9-66.4 50.2-84.7 6.8-4.1 13.1-7.5 19.1-10.3-0.1-10.6-0.1-34.7-0.1-43.3 0-17.6 14.4-32 32-32h25c17.7 0 32 14.4 32 32v28c6.8 0.3 13.4 0.6 20 1.1 9.1 0.7 23.3 4.7 42.1 12 13.6 5.2 22.6 18.5 22.6 33 0 19.4-15.8 35.2-35.2 35.2-3 0-5.9-0.4-8.8-1.1-26.1-6.7-47.2-10.3-60.9-10.3h-2.7c-13 0.5-24.7 3.4-36 8.7-17.2 8.2-20.8 22.2-21.5 29.9-1.1 13.5 5 27.4 15.3 34.4 19.8 13.6 41.1 24.7 59.4 33.8 21.2 10.5 43.6 22.5 63.3 38.7 23.7 19.5 37.1 41.3 41.2 66.4 9.2 57-15.8 101.6-68.6 122.2-9 3.5-18.3 6-27.3 8.4-1 0.3-2 0.5-2.9 0.8v26.9c0 17.7-14.4 32-32 32H484z" fill="#FFCF41" p-id="3864"></path></svg>